<svg width="137" height="34" viewBox="0 0 137 34" fill="none" xmlns="http://www.w3.org/2000/svg">
<circle cx="61" cy="17" r="17" fill="#FFDB00"/>
<path d="M2.324 7.4H6.86V23.304H16.688V27H2.324V7.4ZM33.9811 11.936V27H29.8371V25.208C29.2584 25.8613 28.5677 26.3653 27.7651 26.72C26.9624 27.056 26.0944 27.224 25.1611 27.224C23.1824 27.224 21.6144 26.6547 20.4571 25.516C19.2997 24.3773 18.7211 22.688 18.7211 20.448V11.936H23.0891V19.804C23.0891 22.2307 24.1064 23.444 26.1411 23.444C27.1864 23.444 28.0264 23.108 28.6611 22.436C29.2957 21.7453 29.6131 20.728 29.6131 19.384V11.936H33.9811ZM47.6037 27L44.2997 22.38L40.8837 27H36.1237L41.9197 19.412L36.3197 11.936H41.2197L44.4117 16.332L47.6877 11.936H52.3357L46.7357 19.3L52.5597 27H47.6037ZM61.2321 27.14C59.7947 27.14 58.4227 26.8973 57.1161 26.412C55.8281 25.908 54.8201 25.264 54.0921 24.48L54.7361 23.416C55.4267 24.144 56.3507 24.7413 57.5081 25.208C58.6841 25.656 59.9161 25.88 61.2041 25.88C63.0707 25.88 64.4801 25.5253 65.4321 24.816C66.3841 24.1067 66.8601 23.1827 66.8601 22.044C66.8601 21.1667 66.6081 20.4667 66.1041 19.944C65.6001 19.4213 64.9747 19.02 64.2281 18.74C63.4814 18.46 62.4734 18.1707 61.2041 17.872C59.7667 17.5173 58.6094 17.172 57.7321 16.836C56.8734 16.5 56.1361 15.9867 55.5201 15.296C54.9227 14.5867 54.6241 13.644 54.6241 12.468C54.6241 11.516 54.8761 10.648 55.3801 9.864C55.8841 9.06133 56.6494 8.42667 57.6761 7.96C58.7214 7.49333 60.0187 7.26 61.5681 7.26C62.6507 7.26 63.7147 7.41867 64.7601 7.736C65.8054 8.05333 66.7107 8.48267 67.4761 9.024L66.9441 10.172C66.1601 9.63067 65.2921 9.22 64.3401 8.94C63.4067 8.66 62.4827 8.52 61.5681 8.52C59.7574 8.52 58.3854 8.884 57.4521 9.612C56.5187 10.34 56.0521 11.2827 56.0521 12.44C56.0521 13.3173 56.3041 14.0173 56.8081 14.54C57.3121 15.0627 57.9374 15.464 58.6841 15.744C59.4307 16.024 60.4481 16.3227 61.7361 16.64C63.1734 16.9947 64.3214 17.34 65.1801 17.676C66.0387 18.012 66.7667 18.5253 67.3641 19.216C67.9801 19.888 68.2881 20.8027 68.2881 21.96C68.2881 22.912 68.0267 23.78 67.5041 24.564C67.0001 25.348 66.2161 25.9733 65.1521 26.44C64.0881 26.9067 62.7814 27.14 61.2321 27.14ZM80.0306 12.272C81.3932 12.272 82.6252 12.5893 83.7266 13.224C84.8279 13.8587 85.6866 14.736 86.3026 15.856C86.9372 16.976 87.2546 18.2547 87.2546 19.692C87.2546 21.1293 86.9372 22.4173 86.3026 23.556C85.6866 24.676 84.8279 25.5533 83.7266 26.188C82.6252 26.804 81.3932 27.112 80.0306 27.112C78.7426 27.112 77.5759 26.8133 76.5306 26.216C75.4852 25.6 74.6732 24.7507 74.0946 23.668V32.432H72.6946V12.384H74.0386V15.828C74.6172 14.708 75.4292 13.84 76.4746 13.224C77.5386 12.5893 78.7239 12.272 80.0306 12.272ZM79.9466 25.852C81.0666 25.852 82.0746 25.5907 82.9706 25.068C83.8666 24.5453 84.5666 23.8173 85.0706 22.884C85.5932 21.9507 85.8546 20.8867 85.8546 19.692C85.8546 18.4973 85.5932 17.4333 85.0706 16.5C84.5666 15.5667 83.8666 14.8387 82.9706 14.316C82.0746 13.7933 81.0666 13.532 79.9466 13.532C78.8266 13.532 77.8186 13.7933 76.9226 14.316C76.0452 14.8387 75.3452 15.5667 74.8226 16.5C74.3186 17.4333 74.0666 18.4973 74.0666 19.692C74.0666 20.8867 74.3186 21.9507 74.8226 22.884C75.3452 23.8173 76.0452 24.5453 76.9226 25.068C77.8186 25.5907 78.8266 25.852 79.9466 25.852ZM96.4624 12.272C98.2731 12.272 99.6637 12.7387 100.634 13.672C101.605 14.5867 102.09 15.94 102.09 17.732V27H100.746V24.396C100.28 25.2547 99.5984 25.9267 98.7024 26.412C97.8064 26.8787 96.7331 27.112 95.4824 27.112C93.8584 27.112 92.5704 26.7293 91.6184 25.964C90.6851 25.1987 90.2184 24.1907 90.2184 22.94C90.2184 21.7267 90.6477 20.7467 91.5064 20C92.3837 19.2347 93.7744 18.852 95.6784 18.852H100.69V17.676C100.69 16.3133 100.317 15.2773 99.5704 14.568C98.8424 13.8587 97.7691 13.504 96.3504 13.504C95.3797 13.504 94.4464 13.672 93.5504 14.008C92.6731 14.344 91.9264 14.792 91.3104 15.352L90.6104 14.344C91.3384 13.6907 92.2157 13.1867 93.2424 12.832C94.2691 12.4587 95.3424 12.272 96.4624 12.272ZM95.6784 25.964C96.8917 25.964 97.9184 25.684 98.7584 25.124C99.6171 24.564 100.261 23.752 100.69 22.688V19.944H95.7064C94.2691 19.944 93.2237 20.2053 92.5704 20.728C91.9357 21.2507 91.6184 21.9693 91.6184 22.884C91.6184 23.836 91.9731 24.592 92.6824 25.152C93.3917 25.6933 94.3904 25.964 95.6784 25.964ZM113.682 27.112C112.263 27.112 110.994 26.7947 109.874 26.16C108.754 25.5253 107.877 24.648 107.242 23.528C106.607 22.3893 106.29 21.1107 106.29 19.692C106.29 18.2547 106.607 16.976 107.242 15.856C107.877 14.7173 108.754 13.84 109.874 13.224C110.994 12.5893 112.263 12.272 113.682 12.272C114.858 12.272 115.922 12.5053 116.874 12.972C117.845 13.42 118.629 14.0827 119.226 14.96L118.19 15.716C117.667 14.988 117.014 14.4467 116.23 14.092C115.465 13.7187 114.615 13.532 113.682 13.532C112.543 13.532 111.517 13.7933 110.602 14.316C109.706 14.82 108.997 15.5387 108.474 16.472C107.97 17.4053 107.718 18.4787 107.718 19.692C107.718 20.9053 107.97 21.9787 108.474 22.912C108.997 23.8453 109.706 24.5733 110.602 25.096C111.517 25.6 112.543 25.852 113.682 25.852C114.615 25.852 115.465 25.6747 116.23 25.32C117.014 24.9467 117.667 24.396 118.19 23.668L119.226 24.424C118.629 25.3013 117.845 25.9733 116.874 26.44C115.922 26.888 114.858 27.112 113.682 27.112ZM135.519 20.028H122.947C122.984 21.1667 123.274 22.184 123.815 23.08C124.356 23.9573 125.084 24.6387 125.999 25.124C126.932 25.6093 127.978 25.852 129.135 25.852C130.087 25.852 130.964 25.684 131.767 25.348C132.588 24.9933 133.27 24.48 133.811 23.808L134.623 24.732C133.988 25.4973 133.186 26.0853 132.215 26.496C131.263 26.9067 130.227 27.112 129.107 27.112C127.651 27.112 126.354 26.7947 125.215 26.16C124.076 25.5253 123.18 24.648 122.527 23.528C121.892 22.408 121.575 21.1293 121.575 19.692C121.575 18.2733 121.874 17.004 122.471 15.884C123.087 14.7453 123.927 13.8587 124.991 13.224C126.055 12.5893 127.25 12.272 128.575 12.272C129.9 12.272 131.086 12.5893 132.131 13.224C133.195 13.84 134.026 14.708 134.623 15.828C135.239 16.948 135.547 18.2173 135.547 19.636L135.519 20.028ZM128.575 13.504C127.548 13.504 126.624 13.7373 125.803 14.204C124.982 14.652 124.319 15.296 123.815 16.136C123.33 16.9573 123.05 17.8907 122.975 18.936H134.175C134.119 17.8907 133.839 16.9573 133.335 16.136C132.831 15.3147 132.168 14.6707 131.347 14.204C130.526 13.7373 129.602 13.504 128.575 13.504Z" fill="black"/>
</svg>
